<?xml version="1.0" encoding="utf-8"?>
<svg width="500" zoomAndPan="magnify" viewBox="0 0 375 374.999991" height="500" preserveAspectRatio="xMidYMid meet" version="1.0" xmlns="http://www.w3.org/2000/svg">
  <defs>
    <g/>
    <clipPath id="0eb422d3a8">
      <path d="M 81 85 L 289 85 L 289 294 L 81 294 Z M 81 85 " clip-rule="nonzero"/>
    </clipPath>
    <clipPath id="fa82c2f545">
      <path d="M 33.574219 97.386719 L 320.089844 68.195312 L 341.453125 277.859375 L 54.933594 307.050781 Z M 33.574219 97.386719 " clip-rule="nonzero"/>
    </clipPath>
    <clipPath id="23bffcefeb">
      <path d="M 33.574219 97.386719 L 320.089844 68.195312 L 341.453125 277.859375 L 54.933594 307.050781 Z M 33.574219 97.386719 " clip-rule="nonzero"/>
    </clipPath>
    <clipPath id="fd93a9eaa6">
      <path d="M 33.574219 97.386719 L 320.089844 68.195312 L 341.453125 277.859375 L 54.933594 307.050781 Z M 33.574219 97.386719 " clip-rule="nonzero"/>
    </clipPath>
    <clipPath id="a4fe4684ae">
      <path d="M 40 146 L 332 146 L 332 203 L 40 203 Z M 40 146 " clip-rule="nonzero"/>
    </clipPath>
    <clipPath id="af01cd2c6d">
      <path d="M 33.574219 97.386719 L 320.089844 68.195312 L 341.453125 277.859375 L 54.933594 307.050781 Z M 33.574219 97.386719 " clip-rule="nonzero"/>
    </clipPath>
    <clipPath id="3e14c55f35">
      <path d="M 33.574219 97.386719 L 320.089844 68.195312 L 341.453125 277.859375 L 54.933594 307.050781 Z M 33.574219 97.386719 " clip-rule="nonzero"/>
    </clipPath>
    <clipPath id="aea6b89f36">
      <path d="M 33.574219 97.386719 L 320.089844 68.195312 L 341.453125 277.859375 L 54.933594 307.050781 Z M 33.574219 97.386719 " clip-rule="nonzero"/>
    </clipPath>
    <clipPath id="a0c044836a">
      <path d="M 259 72 L 308 72 L 308 122 L 259 122 Z M 259 72 " clip-rule="nonzero"/>
    </clipPath>
    <clipPath id="d65a15334d">
      <path d="M 33.574219 97.386719 L 320.089844 68.195312 L 341.453125 277.859375 L 54.933594 307.050781 Z M 33.574219 97.386719 " clip-rule="nonzero"/>
    </clipPath>
    <clipPath id="971a340cca">
      <path d="M 33.574219 97.386719 L 320.089844 68.195312 L 341.453125 277.859375 L 54.933594 307.050781 Z M 33.574219 97.386719 " clip-rule="nonzero"/>
    </clipPath>
    <clipPath id="f82798897d">
      <path d="M 33.574219 97.386719 L 320.089844 68.195312 L 341.453125 277.859375 L 54.933594 307.050781 Z M 33.574219 97.386719 " clip-rule="nonzero"/>
    </clipPath>
    <clipPath id="dd5db143fa">
      <path d="M 300 114 L 322 114 L 322 136 L 300 136 Z M 300 114 " clip-rule="nonzero"/>
    </clipPath>
    <clipPath id="8878bd0557">
      <path d="M 33.574219 97.386719 L 320.089844 68.195312 L 341.453125 277.859375 L 54.933594 307.050781 Z M 33.574219 97.386719 " clip-rule="nonzero"/>
    </clipPath>
    <clipPath id="2510fcbfbd">
      <path d="M 33.574219 97.386719 L 320.089844 68.195312 L 341.453125 277.859375 L 54.933594 307.050781 Z M 33.574219 97.386719 " clip-rule="nonzero"/>
    </clipPath>
    <clipPath id="950e1c37ba">
      <path d="M 33.574219 97.386719 L 320.089844 68.195312 L 341.453125 277.859375 L 54.933594 307.050781 Z M 33.574219 97.386719 " clip-rule="nonzero"/>
    </clipPath>
  </defs>
  <rect x="-37.5" width="450" y="-37.499999" height="449.999989" fill-opacity="1"/>
  <rect x="-37.5" width="450" y="-37.499999" height="449.999989" fill-opacity="1" fill="transparent" style="fill: rgb(17, 17, 17);"/>
  <g clip-path="url(#0eb422d3a8)">
    <g clip-path="url(#fa82c2f545)">
      <g clip-path="url(#23bffcefeb)">
        <g clip-path="url(#fd93a9eaa6)">
          <path d="M 83.375 179.464844 C 83.492188 181.472656 83.640625 183.492188 83.875 185.503906 C 83.527344 186.367188 83.207031 187.242188 82.933594 188.113281 C 82.957031 185.203125 83.113281 182.308594 83.375 179.464844 Z M 117.996094 112.21875 C 116.378906 114.445312 114.960938 116.886719 113.703125 119.515625 C 110.445312 121.59375 107.476562 123.785156 104.808594 126.089844 C 108.753906 121.082031 113.167969 116.417969 117.996094 112.21875 Z M 250.617188 111.222656 C 247.539062 109.5 244.171875 107.9375 240.5625 106.578125 C 238.800781 104.226562 236.886719 102.113281 234.839844 100.242188 C 239.890625 103.085938 244.738281 106.371094 249.3125 110.105469 C 249.757812 110.453125 250.1875 110.84375 250.617188 111.222656 Z M 283.101562 165.191406 C 282.9375 163.144531 282.675781 161.136719 282.367188 159.132812 C 283.199219 161.867188 283.902344 164.628906 284.507812 167.445312 C 284.082031 166.691406 283.613281 165.921875 283.101562 165.191406 Z M 286.277344 200.359375 C 285.671875 196.539062 284.214844 192.910156 281.945312 189.464844 C 283.160156 182.582031 283.632812 175.660156 283.328125 168.816406 C 284.597656 171.15625 285.46875 173.582031 285.996094 176.074219 C 286.105469 177.007812 286.246094 177.949219 286.34375 178.902344 C 287.078125 186.121094 287.039062 193.304688 286.277344 200.359375 Z M 261.886719 256.15625 C 262.09375 255.769531 262.269531 255.375 262.449219 254.980469 C 263.191406 254.292969 263.902344 253.582031 264.628906 252.867188 C 264.394531 253.152344 264.179688 253.464844 263.949219 253.75 C 263.277344 254.574219 262.574219 255.359375 261.886719 256.15625 Z M 119.585938 267.585938 C 120.441406 268.152344 121.296875 268.71875 122.164062 269.242188 C 122.417969 269.59375 122.683594 269.945312 122.96875 270.292969 C 122.132812 269.652344 121.300781 269.023438 120.476562 268.367188 C 120.175781 268.109375 119.886719 267.847656 119.585938 267.585938 Z M 93.035156 174.410156 C 93.796875 181.019531 95.320312 187.722656 97.664062 194.488281 C 97.847656 194.992188 98.03125 195.5 98.210938 196.003906 C 97.375 196.902344 96.582031 197.8125 95.832031 198.730469 C 93.5625 201.519531 91.746094 204.351562 90.40625 207.175781 C 87.886719 200.527344 86.144531 193.699219 85.207031 186.777344 C 86.851562 182.539062 89.492188 178.390625 93.035156 174.410156 Z M 86.25 163.355469 C 87.828125 159.359375 90.324219 155.472656 93.617188 151.765625 C 92.449219 158.394531 92.175781 165.238281 92.796875 172.195312 C 91.890625 173.160156 91.035156 174.132812 90.230469 175.101562 C 87.988281 177.875 86.195312 180.644531 84.8125 183.445312 C 84.421875 179.472656 84.304688 175.488281 84.449219 171.503906 C 84.941406 168.753906 85.546875 166.03125 86.25 163.355469 Z M 98.929688 134.390625 C 98.363281 135.65625 97.828125 136.945312 97.335938 138.246094 C 96.628906 139 95.949219 139.738281 95.316406 140.515625 C 96.453125 138.421875 97.652344 136.367188 98.929688 134.390625 Z M 110.675781 127.425781 C 106.359375 130.207031 102.566406 133.148438 99.351562 136.222656 C 100.25 134.082031 101.269531 131.972656 102.378906 129.898438 C 105.355469 126.90625 108.867188 124.0625 112.824219 121.4375 C 112.019531 123.351562 111.292969 125.34375 110.675781 127.425781 Z M 131.058594 111.90625 C 130.378906 113.792969 129.800781 115.796875 129.316406 117.894531 C 126.5 119.039062 123.78125 120.261719 121.152344 121.546875 C 117.949219 123.136719 114.964844 124.78125 112.179688 126.503906 C 112.871094 124.324219 113.675781 122.25 114.59375 120.28125 C 119.492188 117.195312 125.023438 114.378906 131.058594 111.90625 Z M 122.722656 108.320312 C 124.109375 107.25 125.515625 106.21875 126.953125 105.230469 C 130.199219 103.316406 133.75 101.542969 137.535156 99.953125 C 135.113281 102.988281 133.132812 106.492188 131.582031 110.472656 C 125.753906 112.824219 120.347656 115.480469 115.519531 118.386719 C 117.496094 114.582031 119.910156 111.210938 122.722656 108.320312 Z M 139.128906 98.074219 C 138.875 98.160156 138.625 98.257812 138.375 98.371094 C 138.679688 98.207031 138.980469 98.0625 139.285156 97.914062 C 139.234375 97.960938 139.179688 98.011719 139.128906 98.074219 Z M 156.136719 92.738281 C 151.003906 93.945312 146.089844 95.433594 141.460938 97.167969 C 141.480469 97.066406 141.480469 96.949219 141.457031 96.847656 C 146.527344 94.457031 151.824219 92.464844 157.34375 90.929688 C 156.90625 91.480469 156.503906 92.089844 156.136719 92.738281 Z M 208.882812 90.269531 C 204 89.503906 198.886719 89.035156 193.601562 88.890625 C 193.125 88.34375 192.625 87.84375 192.097656 87.386719 C 197.757812 87.785156 203.359375 88.625 208.835938 89.941406 C 208.816406 90.058594 208.828125 90.160156 208.882812 90.269531 Z M 211.289062 90.664062 C 211.242188 90.625 211.179688 90.589844 211.117188 90.539062 C 211.445312 90.632812 211.789062 90.714844 212.117188 90.8125 C 211.851562 90.769531 211.570312 90.710938 211.289062 90.664062 Z M 243.480469 113.097656 C 240.402344 111.984375 237.148438 110.964844 233.707031 110.066406 C 230.859375 109.339844 227.949219 108.691406 224.972656 108.136719 C 224.078125 106.179688 223.089844 104.347656 222.042969 102.605469 C 228.453125 103.828125 234.441406 105.457031 239.847656 107.507812 C 241.15625 109.25 242.363281 111.117188 243.480469 113.097656 Z M 253.734375 114.4375 C 255.253906 116.242188 256.675781 118.105469 257.988281 120.019531 C 254.222656 117.671875 249.925781 115.550781 245.136719 113.710938 C 244.117188 111.796875 243 109.976562 241.8125 108.265625 C 246.21875 110.054688 250.214844 112.105469 253.734375 114.4375 Z M 260.355469 121.59375 C 259.609375 120.390625 258.808594 119.222656 257.976562 118.058594 C 259.679688 119.816406 261.332031 121.613281 262.898438 123.457031 C 262.078125 122.828125 261.230469 122.1875 260.355469 121.59375 Z M 274.808594 156.296875 C 273.8125 155.5 272.777344 154.730469 271.695312 153.957031 C 270.878906 146.945312 269.207031 140.242188 266.691406 133.929688 C 270.671875 136.925781 273.898438 140.257812 276.289062 143.894531 C 277.546875 146.441406 278.699219 149.042969 279.738281 151.695312 C 280.683594 155.539062 281.355469 159.425781 281.769531 163.363281 C 279.863281 160.898438 277.546875 158.546875 274.808594 156.296875 Z M 273.742188 180.605469 C 272.917969 179.917969 272.039062 179.269531 271.144531 178.632812 C 271.242188 178.011719 271.339844 177.390625 271.40625 176.789062 C 272.355469 169.6875 272.496094 162.8125 271.894531 156.203125 C 272.523438 156.660156 273.136719 157.136719 273.722656 157.628906 C 277.222656 160.46875 280 163.515625 282.066406 166.707031 C 282.554688 173.792969 282.199219 180.980469 281.011719 188.136719 C 279.089844 185.496094 276.65625 182.984375 273.742188 180.605469 Z M 278.070312 200.730469 C 276.253906 198.269531 273.96875 195.945312 271.261719 193.722656 C 270.34375 192.984375 269.402344 192.28125 268.414062 191.570312 C 269.46875 187.667969 270.335938 183.773438 270.96875 179.886719 C 271.660156 180.410156 272.351562 180.9375 273.03125 181.476562 C 276.214844 184.074219 278.789062 186.835938 280.753906 189.714844 C 280.082031 193.402344 279.179688 197.085938 278.070312 200.730469 Z M 285.46875 203.960938 C 284.769531 206.644531 283.972656 209.226562 283.082031 211.730469 C 282.398438 208.296875 281.003906 205.011719 278.886719 201.882812 C 280.015625 198.308594 280.945312 194.726562 281.648438 191.109375 C 283.726562 194.542969 284.96875 198.167969 285.351562 201.949219 C 285.417969 202.613281 285.460938 203.292969 285.46875 203.960938 Z M 283.421875 214.066406 C 283.835938 213.003906 284.21875 211.921875 284.601562 210.820312 C 284.261719 212.351562 283.910156 213.855469 283.511719 215.378906 C 283.496094 214.929688 283.46875 214.511719 283.421875 214.066406 Z M 244.089844 266.269531 C 244.609375 264.558594 244.800781 262.851562 244.679688 261.121094 C 250.925781 257.011719 257.328125 251.894531 263.269531 245.667969 C 263.371094 248.519531 262.765625 251.414062 261.519531 254.289062 C 256.230469 259.085938 250.25 263.066406 244.089844 266.269531 Z M 235.339844 278 C 235.257812 278.039062 235.175781 278.089844 235.089844 278.113281 C 236.472656 277.015625 237.738281 275.898438 238.851562 274.722656 C 240.871094 273.890625 242.867188 272.933594 244.792969 271.90625 C 241.75 274.105469 238.605469 276.144531 235.339844 278 Z M 149.183594 283.8125 C 150.464844 284.730469 151.886719 285.574219 153.417969 286.347656 C 153.390625 286.351562 153.359375 286.339844 153.328125 286.328125 C 149.785156 285.175781 146.28125 283.820312 142.871094 282.261719 C 144.933594 282.878906 147.050781 283.40625 149.183594 283.8125 Z M 119.527344 260.3125 C 126.601562 265.199219 133.902344 268.917969 140.847656 271.683594 C 141.066406 273.390625 141.597656 275.039062 142.4375 276.609375 C 135.769531 274.703125 129.109375 272.023438 122.960938 268.390625 C 121.164062 265.828125 119.984375 263.113281 119.527344 260.3125 Z M 93.398438 233.382812 C 93.441406 233.828125 93.515625 234.253906 93.574219 234.714844 C 92.863281 233.277344 92.195312 231.832031 91.550781 230.371094 C 92.148438 231.402344 92.761719 232.414062 93.398438 233.382812 Z M 103.578125 208.347656 C 102.753906 209.246094 101.957031 210.125 101.222656 211.042969 C 99.003906 213.753906 97.265625 216.503906 95.976562 219.253906 C 94.085938 215.796875 92.421875 212.261719 90.980469 208.65625 C 92.683594 204.71875 95.28125 200.878906 98.652344 197.195312 C 100.066406 200.945312 101.722656 204.671875 103.578125 208.347656 Z M 113.5625 184.976562 C 114.78125 188.9375 116.171875 192.910156 117.734375 196.847656 C 112.59375 200.117188 108.109375 203.6875 104.417969 207.476562 C 102.558594 203.773438 100.914062 200.03125 99.515625 196.277344 C 103.332031 192.269531 108.058594 188.488281 113.5625 184.976562 Z M 108.3125 139.425781 C 107.691406 144.980469 107.582031 150.921875 108.09375 157.222656 C 108.144531 158.015625 108.242188 158.804688 108.320312 159.597656 C 102.746094 163.128906 97.867188 166.984375 93.859375 171.085938 C 93.316406 163.929688 93.722656 156.925781 95.09375 150.144531 C 98.726562 146.359375 103.179688 142.765625 108.3125 139.425781 Z M 108.488281 137.867188 C 103.488281 141.078125 99.132812 144.5 95.519531 148.066406 C 96.257812 144.925781 97.191406 141.835938 98.335938 138.796875 C 101.640625 135.324219 105.660156 132.035156 110.269531 128.980469 C 109.511719 131.804688 108.898438 134.773438 108.488281 137.867188 Z M 127.75 128.027344 C 123.75 129.65625 119.925781 131.425781 116.339844 133.300781 C 114.042969 134.523438 111.847656 135.78125 109.757812 137.066406 C 110.222656 133.925781 110.855469 130.894531 111.683594 128.050781 C 116.808594 124.78125 122.644531 121.800781 129.011719 119.175781 C 128.4375 121.953125 128 124.90625 127.75 128.027344 Z M 151.582031 111.890625 C 151.414062 114.640625 151.328125 117.515625 151.351562 120.460938 C 143.464844 122.386719 135.925781 124.75 128.921875 127.542969 C 129.210938 124.390625 129.664062 121.4375 130.292969 118.652344 C 136.875 116.007812 144.019531 113.738281 151.582031 111.890625 Z M 152.28125 105.078125 C 152.015625 106.878906 151.816406 108.757812 151.65625 110.738281 C 144.273438 112.519531 137.199219 114.738281 130.597656 117.359375 C 131.121094 115.242188 131.730469 113.230469 132.453125 111.328125 C 138.605469 108.882812 145.269531 106.78125 152.28125 105.078125 Z M 175.238281 99.992188 C 167.78125 100.765625 160.519531 101.984375 153.613281 103.589844 C 154.328125 99.664062 155.398438 96.316406 156.820312 93.742188 C 162.445312 92.414062 168.296875 91.425781 174.300781 90.785156 Z M 198.292969 99.039062 C 191.191406 98.859375 183.832031 99.132812 176.359375 99.878906 L 175.421875 90.671875 C 181.457031 90.070312 187.386719 89.859375 193.121094 90 C 195.0625 92.246094 196.769531 95.3125 198.292969 99.039062 Z M 201.636719 105.628906 C 201.09375 103.738281 200.519531 101.921875 199.878906 100.214844 C 207.105469 100.464844 214.046875 101.183594 220.5625 102.335938 C 221.652344 104.054688 222.671875 105.914062 223.613281 107.882812 C 216.605469 106.632812 209.242188 105.886719 201.636719 105.628906 Z M 227.289062 117.476562 C 219.929688 116.179688 212.078125 115.367188 203.90625 115.078125 C 203.320312 112.1875 202.675781 109.40625 201.941406 106.761719 C 209.734375 107.027344 217.191406 107.824219 224.167969 109.074219 C 225.332031 111.675781 226.371094 114.460938 227.289062 117.476562 Z M 247.976562 122.914062 C 242.050781 120.757812 235.53125 119.007812 228.53125 117.714844 C 227.644531 114.710938 226.652344 111.933594 225.515625 109.332031 C 232.296875 110.632812 238.597656 112.359375 244.277344 114.511719 C 245.660156 117.132812 246.890625 119.945312 247.976562 122.914062 Z M 249.378906 123.425781 C 248.339844 120.492188 247.160156 117.734375 245.851562 115.152344 C 250.980469 117.203125 255.566406 119.613281 259.503906 122.351562 C 261.214844 125.054688 262.765625 127.875 264.109375 130.777344 C 259.816406 128 254.863281 125.527344 249.378906 123.425781 Z M 253.945312 144.746094 C 253.867188 143.96875 253.785156 143.179688 253.691406 142.390625 C 252.902344 136.046875 251.589844 130.160156 249.824219 124.789062 C 255.507812 127.015625 260.597656 129.652344 264.90625 132.640625 C 267.652344 139.078125 269.511719 145.90625 270.429688 153.082031 C 265.664062 149.890625 260.125 147.097656 253.945312 144.746094 Z M 252.226562 183.148438 C 252.96875 179.015625 253.519531 174.90625 253.90625 170.839844 C 260.023438 173.195312 265.402344 175.976562 269.921875 179.148438 C 269.316406 183.035156 268.480469 186.96875 267.429688 190.886719 C 263.03125 187.902344 257.921875 185.328125 252.226562 183.148438 Z M 263.683594 202.546875 C 259.597656 199.777344 254.851562 197.371094 249.566406 195.351562 C 250.523438 191.664062 251.339844 187.976562 252.023438 184.273438 C 257.703125 186.453125 262.769531 189.046875 267.113281 192.035156 C 266.132812 195.550781 264.996094 199.054688 263.683594 202.546875 Z M 273.867188 212.042969 C 272.128906 209.664062 269.9375 207.386719 267.292969 205.214844 C 266.453125 204.53125 265.542969 203.867188 264.636719 203.21875 C 265.964844 199.738281 267.105469 196.238281 268.097656 192.734375 C 268.929688 193.347656 269.761719 193.960938 270.535156 194.59375 C 273.433594 196.972656 275.792969 199.464844 277.644531 202.097656 C 276.5625 205.433594 275.316406 208.757812 273.867188 212.042969 Z M 220.824219 271.457031 C 220.652344 270.617188 220.335938 269.792969 219.875 268.996094 C 227.714844 265.015625 234.953125 260.394531 241.523438 255.191406 C 242.59375 256.886719 243.242188 258.679688 243.476562 260.558594 C 235.117188 265.988281 227.0625 269.570312 220.824219 271.457031 Z M 220.75 274.851562 C 220.9375 274.121094 221.003906 273.359375 220.96875 272.605469 C 227.179688 270.722656 235.199219 267.203125 243.578125 261.828125 C 243.621094 263.539062 243.320312 265.269531 242.679688 266.976562 C 235.234375 270.6875 227.632812 273.308594 220.75 274.851562 Z M 215.683594 281.820312 C 216.609375 281.101562 217.433594 280.335938 218.136719 279.550781 C 223.980469 279.347656 230.199219 278 236.242188 275.757812 C 234.675781 277.167969 232.867188 278.53125 230.890625 279.792969 C 226.210938 281.445312 222.347656 281.867188 215.683594 281.820312 Z M 181.226562 288.574219 C 185.410156 289.335938 190.164062 289.535156 195.0625 289.039062 C 197.492188 288.789062 199.816406 288.394531 202.015625 287.878906 C 202.835938 288.535156 203.675781 289.0625 204.507812 289.425781 C 201.464844 290.011719 198.375 290.488281 195.242188 290.808594 C 188.375 291.507812 181.539062 291.503906 174.808594 290.855469 C 177.085938 290.417969 179.160156 289.667969 181.226562 288.574219 Z M 170.609375 284.394531 C 171.457031 285.019531 172.417969 285.605469 173.472656 286.121094 C 166.90625 287.515625 163.039062 287.882812 158.089844 287.195312 C 155.902344 286.355469 153.871094 285.398438 152.050781 284.320312 C 158.4375 285.3125 164.828125 285.375 170.609375 284.394531 Z M 166.390625 278.164062 C 166.507812 278.894531 166.726562 279.628906 167.058594 280.320312 C 160.003906 280.183594 152.019531 279.164062 143.976562 277.019531 C 143.003906 275.476562 142.359375 273.855469 142.074219 272.167969 C 151.347656 275.730469 159.914062 277.574219 166.390625 278.164062 Z M 142.730469 265.226562 C 150.230469 269.027344 158.25 272.089844 166.730469 274.394531 C 166.429688 275.269531 166.285156 276.140625 166.285156 277.015625 C 159.792969 276.410156 151.195312 274.523438 141.898438 270.894531 C 141.75 268.992188 142.050781 267.101562 142.730469 265.226562 Z M 101.847656 230.703125 C 100.511719 233.980469 99.875 237.269531 99.949219 240.578125 C 98.039062 238.183594 96.214844 235.695312 94.507812 233.019531 C 94.167969 229.277344 94.730469 225.542969 96.113281 221.871094 C 97.859375 224.890625 99.769531 227.832031 101.847656 230.703125 Z M 109.640625 218.996094 C 108.855469 219.832031 108.113281 220.660156 107.414062 221.503906 C 105.273438 224.148438 103.585938 226.820312 102.363281 229.503906 C 100.296875 226.574219 98.394531 223.585938 96.675781 220.535156 C 98.320312 216.71875 100.84375 213 104.125 209.441406 C 105.800781 212.65625 107.636719 215.855469 109.640625 218.996094 Z M 122.816406 208.25 C 118.03125 211.292969 113.867188 214.609375 110.425781 218.144531 C 108.4375 215.003906 106.613281 211.789062 104.949219 208.558594 C 108.558594 204.816406 113.015625 201.253906 118.179688 197.949219 C 119.59375 201.410156 121.136719 204.859375 122.816406 208.25 Z M 136.964844 188.40625 C 138.113281 191.96875 139.363281 195.558594 140.71875 199.15625 C 134.5 201.667969 128.820312 204.511719 123.769531 207.644531 C 122.101562 204.238281 120.5625 200.804688 119.148438 197.34375 C 124.421875 194.074219 130.414062 191.066406 136.964844 188.40625 Z M 133.050781 175.054688 C 134.097656 179.078125 135.269531 183.160156 136.589844 187.28125 C 130.050781 189.925781 124.042969 192.921875 118.71875 196.238281 C 117.152344 192.285156 115.761719 188.3125 114.546875 184.355469 C 120.035156 180.945312 126.246094 177.8125 133.050781 175.054688 Z M 128.433594 151.269531 C 129.3125 158.445312 130.769531 166.046875 132.757812 173.910156 C 125.96875 176.648438 119.738281 179.753906 114.195312 183.199219 C 111.945312 175.636719 110.394531 168.121094 109.566406 160.835938 C 115.144531 157.332031 121.484375 154.128906 128.433594 151.269531 Z M 127.4375 137.636719 C 127.488281 141.425781 127.765625 145.394531 128.210938 149.488281 C 121.351562 152.28125 115.027344 155.453125 109.386719 158.921875 C 109.324219 158.332031 109.265625 157.726562 109.21875 157.136719 C 108.695312 150.578125 108.816406 144.371094 109.539062 138.632812 C 114.929688 135.246094 121 132.128906 127.65625 129.359375 C 127.472656 132.007812 127.390625 134.75 127.4375 137.636719 Z M 152.660156 141.707031 C 144.386719 143.699219 136.554688 146.167969 129.296875 149.042969 C 128.871094 145.148438 128.625 141.324219 128.566406 137.609375 C 128.519531 134.574219 128.613281 131.660156 128.8125 128.90625 C 135.796875 126.058594 143.371094 123.613281 151.359375 121.652344 C 151.453125 128.15625 151.9375 135.023438 152.660156 141.707031 Z M 176.988281 117.183594 L 179.03125 137.21875 C 170.242188 138.144531 161.707031 139.59375 153.570312 141.5 C 152.828125 134.367188 152.398438 127.59375 152.335938 121.410156 C 160.214844 119.53125 168.472656 118.09375 176.988281 117.183594 Z M 176.023438 107.703125 L 176.875 116.058594 C 168.5 116.941406 160.253906 118.347656 152.332031 120.21875 C 152.328125 117.222656 152.414062 114.335938 152.621094 111.65625 C 160.0625 109.894531 167.910156 108.558594 176.023438 107.703125 Z M 175.90625 106.566406 C 167.921875 107.410156 160.160156 108.722656 152.703125 110.46875 C 152.878906 108.492188 153.105469 106.59375 153.390625 104.820312 C 160.40625 103.160156 167.769531 101.914062 175.351562 101.113281 Z M 177.027344 106.453125 L 176.472656 101 C 184.074219 100.253906 191.539062 99.988281 198.746094 100.183594 C 199.394531 101.863281 199.984375 103.675781 200.558594 105.59375 C 192.902344 105.386719 185.019531 105.667969 177.027344 106.453125 Z M 177.996094 115.945312 L 177.144531 107.589844 C 185.277344 106.773438 193.234375 106.5 200.890625 106.722656 C 201.621094 109.324219 202.28125 112.105469 202.886719 115.039062 C 194.863281 114.808594 186.503906 115.109375 177.996094 115.945312 Z M 205.964844 136.160156 C 197.625 135.921875 188.960938 136.222656 180.152344 137.105469 L 178.109375 117.066406 C 186.675781 116.222656 195.050781 115.953125 203.117188 116.175781 C 204.316406 122.261719 205.265625 129.007812 205.964844 136.160156 Z M 229.683594 127.304688 C 230.375 130.957031 230.894531 134.753906 231.261719 138.65625 C 223.589844 137.300781 215.417969 136.464844 206.910156 136.179688 C 206.257812 129.460938 205.355469 122.621094 204.121094 116.207031 C 212.367188 116.5 220.25 117.339844 227.628906 118.664062 C 228.414062 121.390625 229.097656 124.269531 229.683594 127.304688 Z M 232.414062 138.875 C 232.042969 134.769531 231.496094 130.828125 230.796875 127.105469 C 230.242188 124.226562 229.601562 121.5 228.871094 118.886719 C 235.945312 120.230469 242.515625 122.03125 248.460938 124.261719 C 250.347656 129.808594 251.742188 135.917969 252.574219 142.53125 C 252.648438 143.121094 252.695312 143.726562 252.769531 144.3125 C 246.542969 142.042969 239.710938 140.222656 232.414062 138.875 Z M 232.878906 163.808594 C 233.269531 155.644531 233.15625 147.867188 232.5625 140.601562 C 239.90625 141.992188 246.757812 143.867188 252.960938 146.199219 C 253.636719 153.542969 253.613281 161.292969 252.941406 169.207031 C 246.828125 166.9375 240.085938 165.140625 232.878906 163.808594 Z M 231.832031 177.59375 C 232.296875 173.316406 232.609375 169.128906 232.828125 165.023438 C 233.703125 165.179688 234.585938 165.324219 235.460938 165.496094 C 241.71875 166.789062 247.519531 168.4375 252.816406 170.414062 C 252.433594 174.492188 251.882812 178.617188 251.15625 182.746094 C 245.257812 180.585938 238.78125 178.847656 231.832031 177.59375 Z M 230.195312 190.042969 C 230.796875 186.230469 231.296875 182.445312 231.699219 178.710938 C 238.632812 179.96875 245.097656 181.707031 250.949219 183.871094 C 250.265625 187.5625 249.453125 191.261719 248.507812 194.949219 C 242.929688 192.902344 236.777344 191.246094 230.195312 190.042969 Z M 245.648438 204.773438 C 243.898438 210.128906 241.902344 215.332031 239.660156 220.371094 C 235.132812 218.695312 230.148438 217.355469 224.808594 216.375 C 225.921875 212.058594 226.949219 207.625 227.871094 203.113281 C 228.679688 199.089844 229.40625 195.109375 230.035156 191.175781 C 236.574219 192.355469 242.675781 193.988281 248.226562 196.039062 C 247.4375 198.96875 246.601562 201.886719 245.648438 204.773438 Z M 251.867188 226.480469 C 248.625 224.296875 244.871094 222.382812 240.714844 220.769531 C 242.957031 215.71875 244.96875 210.496094 246.730469 205.128906 C 247.667969 202.242188 248.519531 199.351562 249.285156 196.441406 C 254.527344 198.464844 259.226562 200.863281 263.253906 203.621094 C 260.257812 211.382812 256.4375 219.054688 251.867188 226.480469 Z M 254.925781 228.742188 C 254.246094 228.1875 253.523438 227.648438 252.789062 227.128906 C 257.359375 219.714844 261.195312 212.058594 264.207031 204.292969 C 265.023438 204.894531 265.824219 205.480469 266.570312 206.101562 C 269.339844 208.363281 271.585938 210.738281 273.320312 213.234375 C 273.003906 213.949219 272.683594 214.664062 272.347656 215.367188 C 269.050781 222.171875 265.058594 228.582031 260.453125 234.542969 C 258.996094 232.496094 257.160156 230.578125 254.925781 228.742188 Z M 237.941406 249.539062 C 237.515625 249.207031 237.0625 248.875 236.609375 248.558594 C 242.214844 242.449219 247.414062 235.65625 252.003906 228.414062 C 252.066406 228.304688 252.125 228.183594 252.1875 228.089844 C 252.894531 228.585938 253.570312 229.097656 254.203125 229.613281 C 256.464844 231.460938 258.292969 233.425781 259.71875 235.476562 C 254.511719 242.066406 248.492188 248.101562 241.773438 253.523438 C 240.761719 252.132812 239.480469 250.808594 237.941406 249.539062 Z M 217.28125 266.019531 C 217.183594 265.941406 217.105469 265.890625 217.015625 265.828125 C 223.539062 261.339844 229.894531 255.753906 235.835938 249.390625 C 236.320312 249.71875 236.789062 250.066406 237.234375 250.425781 C 238.707031 251.640625 239.925781 252.914062 240.902344 254.238281 C 234.320312 259.457031 227.082031 264.074219 219.242188 268.042969 C 218.707031 267.328125 218.054688 266.652344 217.28125 266.019531 Z M 147.117188 258.402344 C 154.234375 263.445312 161.601562 267.636719 168.898438 270.714844 C 168.820312 270.8125 168.738281 270.878906 168.675781 270.972656 C 168.042969 271.746094 167.542969 272.539062 167.148438 273.351562 C 158.667969 271.046875 150.660156 267.964844 143.164062 264.195312 C 144.0625 262.199219 145.402344 260.261719 147.117188 258.402344 Z M 126.820312 240.847656 C 126.914062 240.941406 127 241.046875 127.09375 241.140625 C 133.035156 247.308594 139.5 252.914062 146.222656 257.75 C 145.84375 258.167969 145.464844 258.582031 145.101562 259 C 143.847656 260.535156 142.863281 262.105469 142.152344 263.675781 C 134.488281 259.714844 127.375 255.003906 120.949219 249.613281 C 122.222656 246.605469 124.214844 243.65625 126.820312 240.847656 Z M 126.054688 240.023438 C 125.4375 240.683594 124.839844 241.367188 124.285156 242.050781 C 122.453125 244.285156 121.054688 246.550781 120.039062 248.820312 C 114.316406 243.925781 109.128906 238.464844 104.539062 232.464844 C 104.054688 231.84375 103.613281 231.207031 103.140625 230.570312 C 104.699219 226.925781 107.113281 223.378906 110.261719 219.976562 C 114.792969 226.957031 120.078125 233.6875 126.054688 240.023438 Z M 127.566406 217.269531 C 130.359375 222.160156 133.378906 226.867188 136.59375 231.363281 C 132.851562 233.792969 129.5625 236.425781 126.839844 239.203125 C 120.867188 232.863281 115.5625 226.125 111.0625 219.125 C 114.425781 215.660156 118.546875 212.359375 123.316406 209.316406 C 124.664062 212 126.082031 214.644531 127.566406 217.269531 Z M 145.632812 211.492188 C 147.441406 215.726562 149.34375 219.863281 151.289062 223.863281 C 146.257812 225.886719 141.644531 228.21875 137.550781 230.773438 C 134.351562 226.289062 131.332031 221.59375 128.539062 216.707031 C 127.039062 214.082031 125.632812 211.40625 124.285156 208.695312 C 129.269531 205.613281 134.914062 202.773438 141.121094 200.277344 C 142.53125 203.988281 144.015625 207.746094 145.632812 211.492188 Z M 161.804688 193.710938 C 163.828125 202.296875 166.015625 210.648438 168.289062 218.457031 C 162.695312 219.808594 157.390625 221.46875 152.460938 223.394531 C 148.816406 215.976562 145.351562 208.03125 142.25 199.828125 C 148.292969 197.441406 154.851562 195.390625 161.804688 193.710938 Z M 159.070312 181.402344 C 159.84375 185.144531 160.675781 188.898438 161.53125 192.589844 C 154.574219 194.257812 147.960938 196.3125 141.835938 198.722656 C 140.5 195.183594 139.25 191.589844 138.082031 187.972656 C 144.558594 185.425781 151.605469 183.195312 159.070312 181.402344 Z M 156.390625 167.636719 C 156.859375 170.246094 157.308594 172.644531 157.726562 174.75 C 158.074219 176.589844 158.449219 178.441406 158.839844 180.277344 C 151.359375 182.058594 144.265625 184.277344 137.707031 186.847656 C 136.40625 182.78125 135.207031 178.703125 134.152344 174.609375 C 141.015625 171.890625 148.484375 169.546875 156.390625 167.636719 Z M 156.207031 166.519531 C 148.296875 168.402344 140.796875 170.734375 133.863281 173.476562 C 131.894531 165.828125 130.390625 158.207031 129.507812 150.824219 C 136.691406 147.941406 144.519531 145.445312 152.851562 143.433594 C 153.773438 151.785156 155.03125 159.824219 156.207031 166.519531 Z M 181.574219 162.207031 C 173.128906 163.082031 164.925781 164.46875 157.097656 166.296875 C 155.710938 158.402344 154.570312 150.625 153.757812 143.210938 C 161.820312 141.285156 170.355469 139.847656 179.203125 138.917969 Z M 207.515625 161.207031 C 199.496094 160.976562 191.160156 161.257812 182.695312 162.09375 L 180.324219 138.804688 C 189.132812 137.921875 197.796875 137.617188 206.140625 137.859375 C 206.839844 145.300781 207.292969 153.164062 207.515625 161.207031 Z M 208.449219 161.226562 C 208.246094 154.417969 207.839844 146.289062 207.070312 137.878906 C 215.578125 138.160156 223.75 139.015625 231.425781 140.398438 C 232.035156 147.835938 232.109375 155.664062 231.726562 163.59375 C 224.394531 162.292969 216.574219 161.488281 208.449219 161.226562 Z M 208.636719 175.203125 C 208.636719 173.328125 208.632812 171.441406 208.613281 169.566406 C 208.585938 167.433594 208.542969 165.023438 208.480469 162.386719 C 216.503906 162.660156 224.296875 163.480469 231.675781 164.804688 C 231.449219 168.984375 231.105469 173.175781 230.648438 177.378906 C 223.703125 176.183594 216.3125 175.441406 208.636719 175.203125 Z M 208.46875 187.808594 C 208.5625 184.003906 208.621094 180.175781 208.636719 176.324219 C 216.269531 176.578125 223.628906 177.296875 230.53125 178.496094 C 230.105469 182.304688 229.605469 186.089844 229.015625 189.84375 C 222.511719 188.71875 215.636719 188.035156 208.46875 187.808594 Z M 207.066406 214.503906 C 207.722656 206.386719 208.191406 197.761719 208.441406 188.945312 C 215.546875 189.179688 222.394531 189.847656 228.839844 190.964844 C 227.441406 199.640625 225.640625 208.152344 223.582031 216.164062 C 218.363281 215.257812 212.820312 214.703125 207.066406 214.503906 Z M 215.855469 240.628906 C 212.175781 240 208.273438 239.582031 204.222656 239.429688 C 205.332031 232.398438 206.265625 224.324219 206.992188 215.632812 C 212.675781 215.824219 218.144531 216.371094 223.300781 217.253906 C 221.074219 225.765625 218.53125 233.683594 215.855469 240.628906 Z M 226.9375 243.554688 C 223.90625 242.4375 220.605469 241.539062 217.066406 240.851562 C 219.777344 233.832031 222.3125 225.917969 224.527344 217.464844 C 229.808594 218.421875 234.746094 219.75 239.210938 221.402344 C 235.683594 229.234375 231.5625 236.644531 226.9375 243.554688 Z M 228.011719 243.96875 C 232.621094 237.058594 236.742188 229.632812 240.269531 221.804688 C 244.378906 223.390625 248.070312 225.296875 251.265625 227.441406 C 251.191406 227.566406 251.117188 227.675781 251.042969 227.800781 C 246.464844 235.039062 241.261719 241.820312 235.683594 247.894531 C 233.441406 246.394531 230.867188 245.074219 228.011719 243.96875 Z M 216.65625 241.925781 C 220.101562 242.578125 223.339844 243.425781 226.277344 244.492188 C 221.769531 251.113281 216.78125 257.261719 211.363281 262.800781 C 209.945312 262.289062 208.40625 261.851562 206.777344 261.523438 C 210.152344 256.617188 213.515625 249.878906 216.65625 241.925781 Z M 204.046875 240.566406 C 208.007812 240.699219 211.835938 241.09375 215.441406 241.714844 C 212.25 249.847656 208.871094 256.570312 205.5625 261.296875 C 203.539062 260.953125 201.398438 260.734375 199.183594 260.667969 C 200.996094 256.082031 202.640625 249.125 204.046875 240.566406 Z M 190.734375 240.992188 C 194.917969 240.582031 199.023438 240.4375 202.996094 240.527344 C 201.5625 249.105469 199.863281 256.066406 197.964844 260.648438 C 196.277344 260.628906 194.527344 260.707031 192.761719 260.871094 Z M 186.511719 261.8125 C 183.726562 257.707031 180.660156 251.234375 177.539062 243.121094 C 181.367188 242.222656 185.421875 241.546875 189.613281 241.09375 L 191.640625 260.988281 C 189.886719 261.179688 188.160156 261.457031 186.511719 261.8125 Z M 179.214844 263.980469 C 175.019531 260.019531 170.355469 254.113281 165.589844 246.796875 C 168.980469 245.476562 172.636719 244.320312 176.519531 243.371094 C 179.609375 251.484375 182.621094 257.953125 185.335938 262.078125 C 183.164062 262.578125 181.109375 263.222656 179.214844 263.980469 Z M 173.835938 266.621094 C 167.414062 262.292969 161.285156 257.277344 155.523438 251.714844 C 158.203125 250.089844 161.183594 248.597656 164.445312 247.246094 C 169.121094 254.402344 173.773438 260.320312 178.054688 264.433594 C 176.527344 265.097656 175.105469 265.824219 173.835938 266.621094 Z M 153.714844 251.523438 C 151.15625 253.191406 148.890625 255.007812 146.992188 256.917969 C 140.304688 252.089844 133.839844 246.511719 127.914062 240.34375 C 127.800781 240.238281 127.703125 240.132812 127.605469 240.027344 C 130.277344 237.3125 133.527344 234.730469 137.257812 232.328125 C 142.292969 239.269531 147.808594 245.699219 153.714844 251.523438 Z M 163.808594 246.28125 C 160.492188 247.648438 157.429688 249.195312 154.699219 250.898438 C 148.777344 245.078125 143.261719 238.664062 138.226562 231.722656 C 142.242188 229.21875 146.8125 226.9375 151.804688 224.917969 C 155.675781 232.71875 159.753906 239.964844 163.808594 246.28125 Z M 176.105469 242.292969 C 172.167969 243.261719 168.441406 244.457031 164.964844 245.8125 C 160.945312 239.550781 156.867188 232.308594 152.976562 224.433594 C 157.820312 222.546875 163.050781 220.90625 168.605469 219.554688 C 171.066406 227.910156 173.609375 235.628906 176.105469 242.292969 Z M 187.09375 216.378906 L 189.5 239.96875 C 185.21875 240.433594 181.082031 241.148438 177.125 242.058594 C 174.601562 235.398438 172.03125 227.679688 169.554688 219.328125 C 175.125 218.019531 181.007812 217.027344 187.09375 216.378906 Z M 184.390625 189.839844 L 186.980469 215.257812 C 180.847656 215.898438 174.898438 216.910156 169.238281 218.226562 C 166.933594 210.410156 164.730469 202.046875 162.710938 193.488281 C 169.601562 191.871094 176.867188 190.636719 184.390625 189.839844 Z M 183.113281 177.28125 L 184.277344 188.71875 C 176.734375 189.5 169.429688 190.738281 162.453125 192.363281 C 161.582031 188.675781 160.753906 184.9375 159.960938 181.167969 C 167.320312 179.457031 175.070312 178.128906 183.113281 177.28125 Z M 182.996094 176.160156 C 174.96875 176.992188 167.160156 178.3125 159.734375 180.054688 C 158.867188 175.839844 158.042969 171.609375 157.300781 167.425781 C 165.039062 165.605469 173.214844 164.21875 181.691406 163.328125 Z M 184.117188 176.046875 L 182.8125 163.226562 C 191.175781 162.40625 199.480469 162.140625 207.546875 162.367188 C 207.671875 166.597656 207.71875 170.878906 207.703125 175.167969 C 200.078125 174.957031 192.164062 175.238281 184.117188 176.046875 Z M 185.398438 188.601562 L 184.234375 177.167969 C 192.253906 176.378906 200.121094 176.085938 207.71875 176.285156 C 207.703125 180.140625 207.644531 183.980469 207.539062 187.785156 C 200.375 187.585938 192.957031 187.847656 185.398438 188.601562 Z M 188.101562 215.144531 L 185.511719 189.726562 C 193.011719 188.976562 200.390625 188.71875 207.507812 188.910156 C 207.257812 197.710938 206.773438 206.351562 206.105469 214.484375 C 200.285156 214.324219 194.238281 214.53125 188.101562 215.144531 Z M 188.214844 216.265625 C 194.296875 215.675781 200.253906 215.445312 206.015625 215.601562 C 205.277344 224.292969 204.316406 232.371094 203.175781 239.421875 C 199.113281 239.3125 194.902344 239.449219 190.617188 239.855469 Z M 169.691406 269.835938 C 162.414062 266.785156 155.023438 262.625 147.902344 257.566406 C 149.746094 255.734375 151.976562 253.980469 154.539062 252.339844 C 160.289062 257.917969 166.402344 262.917969 172.800781 267.296875 C 171.632812 268.082031 170.585938 268.929688 169.691406 269.835938 Z M 212.496094 263.25 C 217.898438 257.6875 222.875 251.539062 227.367188 244.921875 C 230.179688 246.015625 232.703125 247.285156 234.898438 248.746094 C 228.941406 255.109375 222.570312 260.667969 216.058594 265.125 C 214.996094 264.421875 213.816406 263.800781 212.496094 263.25 Z M 206.882812 288.921875 C 205.722656 288.78125 204.570312 288.300781 203.429688 287.515625 C 205.253906 287.027344 206.964844 286.445312 208.566406 285.800781 C 210.8125 286.445312 212.976562 286.761719 215.265625 286.730469 C 212.523438 287.578125 209.707031 288.300781 206.882812 288.921875 Z M 217.273438 277.910156 C 213.429688 282.644531 204.632812 286.347656 194.890625 287.339844 C 185.148438 288.332031 175.800781 286.480469 171.066406 282.617188 C 169.230469 281.117188 168.199219 279.421875 168.015625 277.59375 C 167.320312 270.761719 178.246094 264.039062 192.371094 262.597656 C 202.109375 261.605469 211.476562 263.472656 216.195312 267.335938 C 218.046875 268.832031 219.074219 270.53125 219.261719 272.371094 C 219.449219 274.199219 218.78125 276.070312 217.273438 277.910156 Z M 101.152344 242.097656 C 100.855469 238.636719 101.390625 235.199219 102.65625 231.796875 C 102.980469 232.257812 103.300781 232.707031 103.652344 233.164062 C 108.359375 239.3125 113.703125 244.917969 119.585938 249.941406 C 118.566406 252.605469 118.097656 255.28125 118.183594 257.960938 C 112.179688 253.589844 106.375 248.351562 101.152344 242.097656 Z M 119.34375 258.804688 C 119.136719 256.078125 119.546875 253.375 120.507812 250.71875 C 126.960938 256.078125 134.0625 260.777344 141.722656 264.71875 C 141 266.625 140.6875 268.53125 140.75 270.445312 C 133.753906 267.609375 126.429688 263.808594 119.34375 258.804688 Z M 148.226562 281.6875 C 146.960938 280.667969 145.90625 279.585938 145.023438 278.46875 C 152.964844 280.464844 160.808594 281.394531 167.726562 281.472656 C 168.191406 282.167969 168.75 282.808594 169.421875 283.4375 C 163.246094 284.34375 156.394531 284.066406 149.65625 282.777344 C 149.171875 282.421875 148.671875 282.0625 148.226562 281.6875 Z M 165.71875 289.542969 C 164.589844 289.277344 163.46875 288.984375 162.394531 288.675781 C 166.039062 288.710938 169.738281 288.101562 175.246094 286.886719 C 176.546875 287.40625 177.941406 287.847656 179.445312 288.1875 C 176.488281 289.535156 173.460938 290.164062 169.691406 290.199219 C 169.675781 290.199219 169.648438 290.203125 169.648438 290.203125 C 168.335938 290.015625 167.023438 289.785156 165.71875 289.542969 Z M 223.90625 283.613281 C 222.679688 284.117188 221.449219 284.589844 220.207031 285.050781 C 220.191406 285.054688 220.191406 285.054688 220.175781 285.054688 C 216.476562 285.78125 213.414062 285.773438 210.261719 285.0625 C 211.664062 284.410156 212.957031 283.699219 214.113281 282.941406 C 219.707031 283.007812 223.4375 282.863281 226.988281 282.09375 C 225.996094 282.617188 224.960938 283.128906 223.90625 283.613281 Z M 238.273438 273.75 C 231.9375 276.371094 225.296875 278.023438 219.089844 278.378906 C 219.609375 277.628906 220.027344 276.886719 220.355469 276.113281 C 227.085938 274.640625 234.585938 272.164062 241.960938 268.605469 C 241.304688 269.863281 240.492188 271.140625 239.472656 272.390625 C 239.097656 272.851562 238.679688 273.300781 238.273438 273.75 Z M 244.511719 259.886719 C 244.203125 257.984375 243.496094 256.199219 242.40625 254.464844 C 249.128906 249.054688 255.132812 243.035156 260.375 236.46875 C 261.882812 238.902344 262.800781 241.484375 263.132812 244.167969 C 257.199219 250.484375 250.792969 255.703125 244.511719 259.886719 Z M 264.113281 243.109375 C 263.65625 240.46875 262.65625 237.9375 261.105469 235.539062 C 265.882812 229.414062 269.988281 222.847656 273.359375 215.875 C 273.59375 215.355469 273.820312 214.855469 274.058594 214.335938 C 276 217.4375 277.191406 220.71875 277.582031 224.152344 C 273.726562 231.316406 269.113281 237.613281 264.113281 243.109375 Z M 278.464844 222.417969 C 277.859375 219.167969 276.570312 216.070312 274.628906 213.117188 C 276.070312 209.871094 277.363281 206.601562 278.449219 203.292969 C 280.578125 206.667969 281.851562 210.199219 282.273438 213.921875 C 281.125 216.871094 279.84375 219.707031 278.464844 222.417969 Z M 270.109375 177.878906 C 265.492188 174.703125 260.070312 171.941406 254.042969 169.621094 C 254.734375 161.730469 254.773438 153.992188 254.125 146.632812 C 260.394531 149.058594 265.964844 151.980469 270.6875 155.324219 C 271.382812 162.15625 271.265625 169.273438 270.289062 176.640625 C 270.246094 177.050781 270.171875 177.46875 270.109375 177.878906 Z M 210.847656 91.742188 C 214.1875 94.179688 217.132812 97.292969 219.707031 101.058594 C 213.296875 99.964844 206.496094 99.308594 199.445312 99.082031 C 198.050781 95.515625 196.445312 92.4375 194.605469 90.054688 C 200.246094 90.265625 205.6875 90.828125 210.847656 91.742188 Z M 139.792969 99.023438 C 144.660156 97.089844 149.90625 95.421875 155.398438 94.0625 C 154.078125 96.769531 153.140625 100.105469 152.492188 103.863281 C 145.636719 105.523438 139.105469 107.539062 133.046875 109.886719 C 134.785156 105.726562 137.027344 102.082031 139.792969 99.023438 Z M 98.730469 194.117188 C 96.300781 187.097656 94.75 180.136719 94.039062 173.304688 C 97.957031 169.140625 102.820312 165.171875 108.515625 161.511719 C 109.375 168.792969 110.949219 176.277344 113.199219 183.808594 C 107.746094 187.285156 102.992188 191.054688 99.089844 195.085938 C 98.96875 194.761719 98.851562 194.441406 98.730469 194.117188 Z M 88.765625 221.980469 C 88.363281 218.023438 88.933594 214.070312 90.382812 210.203125 C 91.828125 213.714844 93.515625 217.179688 95.398438 220.5625 C 93.953125 224.035156 93.25 227.539062 93.273438 231.023438 C 91.703125 228.453125 90.238281 225.753906 88.890625 222.910156 C 88.84375 222.609375 88.796875 222.296875 88.765625 221.980469 Z M 95.875 239.058594 C 95.457031 237.9375 95.140625 236.808594 94.90625 235.65625 C 96.542969 238.058594 98.257812 240.355469 100.046875 242.515625 C 100.046875 242.527344 100.050781 242.542969 100.050781 242.558594 C 100.21875 244.210938 100.574219 245.832031 101.097656 247.421875 C 99.210938 244.722656 97.476562 241.933594 95.875 239.058594 Z M 109.488281 257.832031 C 109.410156 257.765625 109.332031 257.714844 109.242188 257.695312 C 107.507812 255.78125 105.871094 253.796875 104.296875 251.761719 C 102.859375 249.304688 101.886719 246.746094 101.414062 244.105469 C 106.613281 250.113281 112.339844 255.171875 118.257812 259.394531 C 118.539062 262.023438 119.378906 264.570312 120.742188 266.988281 C 116.675781 264.378906 112.851562 261.355469 109.488281 257.832031 Z M 129.089844 274.671875 C 127.464844 273.410156 126.023438 272.089844 124.792969 270.703125 C 130.707031 273.894531 136.992188 276.292969 143.277344 278.007812 C 144.269531 279.488281 145.546875 280.886719 147.117188 282.222656 C 142.328125 281.097656 137.675781 279.464844 133.414062 277.367188 C 131.960938 276.5 130.519531 275.613281 129.089844 274.671875 Z M 256.800781 261.660156 C 255.558594 262.890625 254.289062 264.09375 253 265.257812 C 249.261719 268.167969 245.03125 270.675781 240.59375 272.726562 C 241.855469 271.132812 242.832031 269.476562 243.535156 267.808594 C 249.347656 264.875 255.015625 261.257812 260.164062 256.941406 C 259.253906 258.53125 258.121094 260.113281 256.800781 261.660156 Z M 272.800781 241.03125 C 272.730469 241.070312 272.664062 241.132812 272.613281 241.210938 C 270.019531 245.355469 266.871094 249.09375 263.414062 252.484375 C 264.261719 249.824219 264.570312 247.160156 264.316406 244.527344 C 269.257812 239.199219 273.847656 233.09375 277.730469 226.183594 C 277.800781 228.867188 277.351562 231.558594 276.449219 234.25 C 275.320312 236.546875 274.113281 238.804688 272.800781 241.03125 Z M 278.707031 229.328125 C 278.902344 227.679688 278.917969 226.007812 278.75 224.351562 C 280.066406 221.863281 281.285156 219.296875 282.402344 216.597656 C 282.40625 217.757812 282.320312 218.914062 282.148438 220.097656 C 281.148438 223.222656 280.011719 226.316406 278.707031 229.328125 Z M 273.292969 138.285156 C 271.160156 136.03125 268.652344 133.917969 265.851562 131.933594 C 264.679688 129.25 263.351562 126.625 261.871094 124.085938 C 263.90625 125.679688 265.746094 127.351562 267.351562 129.136719 C 269.507812 132.070312 271.476562 135.140625 273.292969 138.285156 Z M 238.574219 105.835938 C 233.242188 103.949219 227.425781 102.4375 221.246094 101.320312 C 218.902344 97.722656 216.242188 94.679688 213.242188 92.167969 C 217.363281 92.996094 221.289062 94.066406 224.960938 95.332031 C 226.402344 95.957031 227.832031 96.59375 229.253906 97.292969 C 232.679688 99.5625 235.800781 102.425781 238.574219 105.835938 Z M 190.023438 87.25 C 190.722656 87.703125 191.386719 88.230469 192.046875 88.863281 C 186.59375 88.761719 180.996094 88.984375 175.304688 89.535156 L 175.109375 87.621094 C 180.109375 87.125 185.09375 87.011719 190.023438 87.25 Z M 173.988281 87.722656 L 174.183594 89.648438 C 168.527344 90.253906 162.988281 91.183594 157.667969 92.378906 C 158.171875 91.628906 158.726562 90.960938 159.320312 90.378906 C 164.074219 89.152344 168.976562 88.261719 173.988281 87.722656 Z M 92.09375 146.933594 C 93.296875 144.90625 94.71875 142.917969 96.367188 140.992188 C 95.417969 143.804688 94.652344 146.671875 94.046875 149.582031 C 91.664062 152.109375 89.652344 154.726562 88.019531 157.363281 C 89.195312 153.800781 90.550781 150.316406 92.09375 146.933594 Z M 83.28125 197.640625 C 83.179688 194.789062 83.558594 191.945312 84.402344 189.125 C 85.453125 195.746094 87.265625 202.277344 89.757812 208.636719 C 88.242188 212.265625 87.496094 215.917969 87.519531 219.589844 C 85.527344 213.136719 84.148438 206.433594 83.449219 199.570312 C 83.382812 198.921875 83.332031 198.273438 83.28125 197.640625 Z M 81.699219 199.503906 C 81.707031 199.574219 81.726562 199.628906 81.761719 199.699219 C 81.765625 199.714844 81.753906 199.730469 81.753906 199.742188 C 84.5625 227.320312 97.9375 252.160156 119.40625 269.683594 C 140.875 287.203125 167.859375 295.296875 195.414062 292.488281 C 252.25 286.699219 293.785156 235.710938 288.046875 178.8125 C 288.078125 178.710938 288.097656 178.589844 288.085938 178.476562 C 287.992188 177.570312 287.84375 176.683594 287.667969 175.800781 C 284.238281 149.394531 271.09375 125.675781 250.386719 108.789062 C 228.914062 91.269531 201.929688 83.160156 174.375 85.96875 C 146.832031 88.773438 122.023438 102.15625 104.527344 123.648438 C 87.550781 144.503906 79.460938 170.558594 81.578125 197.304688 C 81.582031 198.046875 81.625 198.769531 81.699219 199.503906 " fill-opacity="1" fill-rule="nonzero" style="fill: rgb(255, 255, 255);"/>
        </g>
      </g>
    </g>
  </g>
  <g clip-path="url(#a4fe4684ae)">
    <g clip-path="url(#af01cd2c6d)">
      <g clip-path="url(#3e14c55f35)">
        <g clip-path="url(#aea6b89f36)">
          <path d="M 296.136719 198.222656 C 294.582031 198.511719 293.683594 199.664062 294.117188 200.78125 C 294.550781 201.914062 296.160156 202.59375 297.710938 202.304688 C 308.566406 200.269531 317.191406 197.71875 323 194.742188 C 329.167969 191.585938 332.347656 187.890625 331.921875 183.734375 C 331.042969 175.101562 313.585938 166.765625 286.101562 160.277344 C 259.566406 154.015625 223.351562 149.214844 183.753906 147.390625 C 163.746094 146.480469 144.808594 146.402344 127.671875 147.046875 C 102.855469 147.972656 81.769531 150.441406 66.734375 154.066406 C 50.78125 157.914062 41.351562 163.25 40.980469 169.714844 C 40.960938 170.09375 40.96875 170.46875 41.007812 170.828125 C 41.371094 174.410156 44.425781 177.878906 49.753906 181.160156 C 54.875 184.285156 62.179688 187.304688 71.261719 190.101562 C 72.761719 190.558594 74.46875 190.078125 75.070312 189 C 75.671875 187.9375 74.953125 186.703125 73.453125 186.230469 C 64.925781 183.609375 58.125 180.816406 53.492188 177.972656 C 49.40625 175.46875 47.078125 172.988281 46.835938 170.613281 C 46.8125 170.382812 46.820312 170.164062 46.828125 169.976562 C 47.089844 165.429688 55.078125 161.34375 68.667969 158.070312 C 83.175781 154.558594 103.75 152.183594 128.101562 151.257812 C 145.046875 150.625 163.78125 150.707031 183.515625 151.617188 C 222.632812 153.402344 258.328125 158.121094 284.402344 164.273438 C 309.511719 170.203125 325.394531 177.234375 326.082031 183.949219 C 326.34375 186.523438 324.027344 189 319.554688 191.285156 C 314.296875 193.972656 306.304688 196.3125 296.136719 198.222656 " fill-opacity="1" fill-rule="nonzero" style="fill: rgb(255, 255, 255);"/>
        </g>
      </g>
    </g>
  </g>
  <g clip-path="url(#a0c044836a)">
    <g clip-path="url(#d65a15334d)">
      <g clip-path="url(#971a340cca)">
        <g clip-path="url(#f82798897d)">
          <path d="M 280.640625 72.757812 L 280.78125 72.742188 C 283.070312 85.519531 294.378906 94.757812 307.335938 94.410156 L 307.351562 94.570312 C 294.589844 96.84375 285.378906 108.175781 285.714844 121.148438 L 285.570312 121.164062 C 283.28125 108.386719 271.976562 99.148438 259.019531 99.492188 L 259.003906 99.335938 C 271.761719 97.0625 280.972656 85.730469 280.640625 72.757812 " fill-opacity="1" fill-rule="evenodd" style="fill: rgb(255, 255, 255);"/>
        </g>
      </g>
    </g>
  </g>
  <g clip-path="url(#dd5db143fa)">
    <g clip-path="url(#8878bd0557)">
      <g clip-path="url(#2510fcbfbd)">
        <g clip-path="url(#950e1c37ba)">
          <path d="M 309.789062 114.667969 L 309.863281 114.660156 C 310.820312 120.101562 315.636719 124.03125 321.136719 123.875 L 321.144531 123.949219 C 315.726562 124.90625 311.800781 129.726562 311.957031 135.230469 L 311.886719 135.238281 C 310.925781 129.8125 306.113281 125.886719 300.597656 126.042969 L 300.589844 125.96875 C 306.023438 125.007812 309.945312 120.191406 309.789062 114.667969 " fill-opacity="1" fill-rule="evenodd" style="fill: rgb(255, 255, 255);"/>
        </g>
      </g>
    </g>
  </g>
</svg>